<svg height="464pt" viewBox="0 0 464 464.008" width="464pt" xmlns="http://www.w3.org/2000/svg"><path d="m64.339844 190.640625c-.167969-2.191406-.335938-4.394531-.335938-6.632813v-38.527343c-9.289062 3.3125-16 12.113281-16 22.527343 0 10.542969 6.871094 19.417969 16.335938 22.632813zm0 0"/><path d="m184.003906 265.894531c-9.9375 3.898438-20.703125 6.113281-32 6.113281s-22.0625-2.214843-32-6.113281v10.800781l32 32 32-32zm0 0"/><path d="m67.179688 303.382812-39.824219 13.273438c-16.359375 5.457031-27.35156275 20.703125-27.35156275 37.953125v29.40625h47.99999975v-24h16v56h80v-76.6875l-33.457031 33.457031zm0 0"/><path d="m224.003906 128.007812h-144v56c0 39.703126 32.296875 72 72 72s72-32.296874 72-72zm-112 32c-4.414062 0-8-3.582031-8-8 0-4.414062 3.585938-8 8-8 4.417969 0 8 3.585938 8 8 0 4.425782-3.582031 8-8 8zm40 72c-17.648437 0-32-14.351562-32-32h16c0 8.824219 7.175782 16 16 16 8.824219 0 16-7.175781 16-16h16c0 17.648438-14.351562 32-32 32zm40-72c-4.414062 0-8-3.582031-8-8 0-4.414062 3.585938-8 8-8 4.417969 0 8 3.585938 8 8 0 4.425782-3.582031 8-8 8zm0 0"/><path d="m163.316406 320.007812 27.230469 27.238282 30.671875-49.070313-27.054688-9.015625zm0 0"/><path d="m113.460938 347.246094 27.230468-27.238282-30.847656-30.847656-27.046875 9.015625zm0 0"/><path d="m.00390625 400.007812h47.99999975v16h-47.99999975zm0 0"/><path d="m240.003906 145.488281v38.527344c0 2.242187-.167968 4.433594-.335937 6.632813 9.464843-3.222657 16.335937-12.097657 16.335937-22.640626 0-10.414062-6.710937-19.207031-16-22.519531zm0 0"/><path d="m456.003906 288.007812h-192c-4.414062 0-8 3.585938-8 8v88h208v-88c0-4.40625-3.582031-8-8-8zm-123.199218 65.601563-9.59375 12.796875-40.535157-30.398438 40.535157-30.398437 9.59375 12.796875-23.464844 17.601562zm20.71875 18.40625-14.75-6.199219 27.703124-65.816406 14.75 6.199219zm43.28125-5.609375-9.59375-12.796875 23.464843-17.601563-23.464843-17.601562 9.59375-12.796875 40.535156 30.398437zm0 0"/><path d="m256.003906 408.007812c0 4.417969 3.585938 8 8 8h192c4.417969 0 8-3.582031 8-8v-8h-208zm0 0"/><path d="m64.003906 128.007812c0-8.824218 7.175782-16 16-16h144c8.824219 0 16 7.175782 16 16v.808594c5.945313 1.214844 11.328125 3.855469 16 7.390625v-32.207031c0-57.34375-46.65625-104-104-104s-104 46.65625-104 104v32.207031c4.671875-3.535156 10.054688-6.183593 16-7.390625zm0 0"/><path d="m392.003906 432.007812h-64v16h-16v16h96v-16h-16zm0 0"/><path d="m193.460938 372.777344-33.457032-33.457032v76.6875h80v-111.566406l-3.175781-1.058594zm0 0"/></svg>